<?xml version="1.0" encoding="utf-8"?>
<!-- Generator: Adobe Illustrator 13.0.0, SVG Export Plug-In . SVG Version: 6.00 Build 14948)  -->
<!DOCTYPE svg PUBLIC "-//W3C//DTD SVG 1.1//EN" "http://www.w3.org/Graphics/SVG/1.1/DTD/svg11.dtd">
<svg version="1.1" id="Layer_1" xmlns="http://www.w3.org/2000/svg" xmlns:xlink="http://www.w3.org/1999/xlink" x="0px" y="0px"
	 width="145.582px" height="145.583px" viewBox="0 0 145.582 145.583" enable-background="new 0 0 145.582 145.583"
	 xml:space="preserve">
<circle fill="#F1F1F2" cx="72.791" cy="72.792" r="59.745"/>
<linearGradient id="SVGID_1_" gradientUnits="userSpaceOnUse" x1="72.7896" y1="83.6118" x2="72.7896" y2="44.7019" gradientTransform="matrix(1 0 0 -1 0 144.4727)">
	<stop  offset="0" style="stop-color:#65C6F0"/>
	<stop  offset="1" style="stop-color:#0857A0"/>
</linearGradient>
<path fill="url(#SVGID_1_)" d="M101.003,67.575c-2.921-10.046-21.028-7.595-21.028-7.595c4.672-7.01,12.851-12.623,12.851-12.623
	c-15.422-2.223-20.329,10.519-20.329,10.519c-8.295-14.952-20.679-9.582-20.679-9.582c7.361,3.507,13.319,11.802,13.319,11.802
	c-16.938-3.972-20.562,7.126-20.562,7.126c10.514-2.803,17.992-0.583,17.992-0.583c-13.669,6.659-10.083,19.519-10.083,19.519
	c0.876-1.406,1.813-2.746,2.789-4.014c0.974-1.262,1.986-2.45,3.011-3.562c4.56-4.943,9.369-8.323,12.268-9.712l-3.817,33.362h4.217
	h1.387h1.385h4.217L74.097,68.64c5.179,2.933,18.729,18.212,18.729,18.212c3.271-13.436-10.864-19.875-10.864-19.875
	C90.488,65.087,101.003,67.575,101.003,67.575z"/>
</svg>
