<svg xmlns="http://www.w3.org/2000/svg" xmlns:svg="http://www.w3.org/2000/svg" enable-background="new 0 0 145.582 145.583" version="1.1" xml:space="preserve" viewBox="13.05 13.05 119.48 119.48"> <linearGradient id="SVGID_1_" x1="0.5" x2="0.5" y1="0.25" y2="0.96">  <stop offset="0" stop-color="#65C6F0"></stop>  <stop offset="1" stop-color="#0857A0"></stop> </linearGradient> <g class="layer">  <title>Layer 1</title>  <circle cx="72.79" cy="72.79" fill="#FFFFFF" id="svg_1" r="59.74"></circle>  <path d="m101,67.58c-2.92,-10.05 -21.03,-7.6 -21.03,-7.6c4.68,-7.01 12.86,-12.62 12.86,-12.62c-15.43,-2.23 -20.33,10.52 -20.33,10.52c-8.3,-14.96 -20.68,-9.59 -20.68,-9.59c7.36,3.51 13.32,11.81 13.32,11.81c-16.94,-3.98 -20.57,7.12 -20.57,7.12c10.52,-2.8 18,-0.58 18,-0.58c-13.67,6.66 -10.09,19.52 -10.09,19.52c0.88,-1.41 1.82,-2.75 2.79,-4.02c0.98,-1.26 1.99,-2.45 3.01,-3.56c4.56,-4.94 9.37,-8.32 12.27,-9.71l-3.82,33.36l4.22,0l1.39,0l1.38,0l4.22,0l-3.84,-33.59c5.18,2.93 18.73,18.21 18.73,18.21c3.27,-13.43 -10.87,-19.87 -10.87,-19.87c8.53,-1.89 19.04,0.6 19.04,0.6z" fill="url(#SVGID_1_)" id="svg_2"></path> </g></svg>